<svg version="1.1" preserveAspectRatio="xMidYMid meet" xmlns="http://www.w3.org/2000/svg" xmlns:xlink="http://www.w3.org/1999/xlink" viewBox="-272.031 0.000 1544.061 1000.000"><defs><path d="M817.283,500.000 A317.283,317.283 0 1 0 182.717,500.000 A317.283,317.283 0 1 0 817.283,500.000 Z" stroke-linecap="round" stroke-linejoin="round" stroke-miterlimit="25" id="def-bac14921-b0f1-4598-bce4-5fe1a35baa6b"></path><path d="M313.973,500.404 C318.598,500.404,322.433,496.456,322.433,491.944 C322.433,490.478,322.433,489.012,322.433,487.546 C322.433,483.936,322.433,480.214,322.433,476.605 C322.433,476.492,322.433,476.379,322.433,476.266 C323.786,476.266,325.140,476.266,326.493,476.266 C327.959,476.266,329.538,476.379,331.118,476.266 C333.486,476.154,335.968,475.703,338.336,475.026 C339.802,474.462,341.269,473.898,342.622,473.221 C343.412,472.883,344.088,472.432,344.878,471.980 C346.119,471.191,347.359,470.176,348.487,469.274 C349.164,468.710,349.841,468.146,350.405,467.582 C351.420,466.454,352.322,465.213,353.224,463.972 C353.788,463.408,354.240,462.619,354.691,461.942 C355.029,461.153,355.480,460.476,355.819,459.686 C356.383,458.220,357.059,456.867,357.510,455.288 C357.736,454.498,357.849,453.596,357.962,452.806 C358.300,451.227,358.526,449.648,358.526,447.956 C358.526,447.054,358.526,446.152,358.413,445.362 C358.300,443.783,358.074,442.091,357.736,440.625 C357.510,439.722,357.285,438.933,356.947,438.143 C356.495,436.677,355.819,435.211,355.142,433.857 C354.014,431.714,352.548,429.797,351.081,428.105 C349.502,426.300,347.585,424.834,345.667,423.481 C343.750,422.014,341.494,421.112,339.351,420.210 C336.983,419.307,334.614,419.082,332.133,418.744 C330.554,418.518,328.862,418.631,327.170,418.631 C322.884,418.631,318.711,418.631,314.425,418.631 C314.199,418.631,314.086,418.631,313.973,418.631 C309.349,418.631,305.514,422.466,305.514,427.090 C305.514,428.443,305.514,429.910,305.514,431.376 C305.514,434.985,305.514,438.707,305.514,442.317 C305.514,447.167,305.514,452.017,305.514,456.867 C305.514,461.942,305.514,466.905,305.514,471.980 C305.514,476.154,305.514,480.327,305.514,484.500 C305.514,486.756,305.514,489.125,305.514,491.380 C305.514,491.493,305.514,491.719,305.514,491.944 C305.514,496.456,309.349,500.404,313.973,500.404 Z M331.343,435.549 C332.358,435.775,333.373,436.113,334.276,436.452 C335.291,436.903,336.080,437.354,336.983,437.918 C337.772,438.595,338.449,439.384,339.126,440.174 C339.690,440.963,340.254,441.865,340.705,442.768 C341.043,443.783,341.381,444.798,341.494,445.813 C341.607,446.941,341.607,447.956,341.494,449.084 C341.381,450.099,341.043,451.114,340.705,452.129 C340.254,453.032,339.690,453.934,339.126,454.724 C338.449,455.513,337.772,456.303,336.983,456.979 C336.080,457.543,335.291,457.994,334.276,458.446 C333.373,458.784,332.358,459.122,331.343,459.348 C329.990,459.461,328.636,459.348,327.283,459.348 C325.591,459.348,324.012,459.348,322.433,459.348 C322.433,455.288,322.433,451.114,322.433,446.941 C322.433,443.106,322.433,439.384,322.433,435.549 C323.335,435.549,324.237,435.549,325.252,435.549 C327.283,435.549,329.313,435.436,331.343,435.549 Z M378.594,500.404 C383.218,500.404,387.053,496.569,387.053,492.057 C387.053,490.591,387.053,489.125,387.053,487.771 C387.053,484.049,387.053,480.440,387.053,476.830 C387.053,474.123,387.053,471.417,387.053,468.710 C387.166,468.710,387.279,468.710,387.392,468.710 C392.354,468.710,397.204,468.710,402.167,468.710 C403.182,468.710,404.310,468.710,405.438,468.710 C405.438,469.837,405.438,470.853,405.438,471.980 C405.438,476.154,405.438,480.327,405.438,484.500 C405.438,486.869,405.438,489.125,405.438,491.493 C405.438,491.606,405.438,491.832,405.438,492.057 C405.438,496.569,409.273,500.404,413.897,500.404 C418.409,500.404,422.244,496.569,422.244,492.057 C422.244,490.591,422.244,489.125,422.244,487.771 C422.244,484.049,422.244,480.440,422.244,476.830 C422.244,471.980,422.244,467.130,422.244,462.393 C422.244,457.318,422.244,452.355,422.244,447.392 C422.244,443.219,422.244,439.046,422.244,434.873 C422.244,432.617,422.244,430.248,422.244,427.880 C422.244,427.767,422.244,427.541,422.244,427.316 C422.244,422.804,418.409,418.969,413.897,418.969 C409.273,418.969,405.438,422.804,405.438,427.316 C405.438,428.782,405.438,430.248,405.438,431.714 C405.438,435.324,405.438,438.933,405.438,442.542 C405.438,445.700,405.438,448.746,405.438,451.791 C404.310,451.791,403.069,451.791,401.941,451.791 C396.979,451.791,392.129,451.791,387.279,451.791 C387.166,451.791,387.166,451.791,387.053,451.791 C387.053,450.325,387.053,448.858,387.053,447.392 C387.053,443.219,387.053,439.046,387.053,434.873 C387.053,432.617,387.053,430.248,387.053,427.880 C387.053,427.767,387.053,427.541,387.053,427.316 C387.053,422.804,383.218,418.969,378.594,418.969 C374.082,418.969,370.247,422.804,370.247,427.316 C370.247,428.782,370.247,430.248,370.247,431.714 C370.247,435.324,370.247,438.933,370.247,442.542 C370.247,447.392,370.247,452.242,370.247,456.979 C370.247,462.055,370.247,467.018,370.247,471.980 C370.247,476.154,370.247,480.327,370.247,484.500 C370.247,486.869,370.247,489.125,370.247,491.493 C370.247,491.606,370.247,491.832,370.247,492.057 C370.247,496.569,374.082,500.404,378.594,500.404 Z M474.796,498.148 C476.036,497.133,477.277,496.230,478.292,495.215 C479.420,494.087,480.322,492.847,481.225,491.606 C482.691,489.689,483.593,487.546,484.383,485.290 C484.834,484.275,485.059,483.259,485.285,482.244 C485.511,480.553,485.849,478.748,485.849,476.943 C485.849,474.575,485.849,472.206,485.849,469.725 C485.849,464.875,485.849,460.025,485.849,455.062 C485.849,451.227,485.849,447.279,485.849,443.332 C485.849,442.429,485.849,441.414,485.736,440.399 C485.511,438.031,485.172,435.549,484.270,433.181 C483.706,431.827,483.142,430.361,482.353,429.007 C481.563,427.654,480.661,426.526,479.646,425.285 C478.179,423.368,476.375,421.902,474.457,420.548 C472.540,419.082,470.284,418.180,468.028,417.390 C467.239,417.052,466.336,416.826,465.547,416.713 C463.968,416.375,462.389,416.149,460.810,416.037 C459.907,416.037,459.005,416.037,458.103,416.149 C456.524,416.262,454.945,416.488,453.365,416.826 C452.463,417.052,451.674,417.390,450.884,417.728 C449.418,418.292,448.064,418.856,446.711,419.646 C445.357,420.435,444.229,421.450,442.989,422.353 C442.312,422.917,441.748,423.481,441.184,424.045 C440.169,425.173,439.154,426.413,438.364,427.654 C437.800,428.331,437.349,429.007,437.011,429.797 C435.883,431.940,434.981,434.196,434.529,436.564 C434.191,438.707,433.966,440.738,433.966,442.881 C433.966,444.347,433.966,445.813,433.966,447.279 C433.966,452.017,433.966,456.867,433.966,461.604 C433.966,465.890,433.966,470.063,433.966,474.349 C433.966,475.251,433.966,476.041,433.966,476.943 C433.966,478.973,434.304,481.004,434.642,482.921 C434.868,483.711,435.093,484.613,435.432,485.403 C435.883,486.869,436.560,488.222,437.236,489.576 C437.688,490.365,438.139,491.042,438.590,491.719 C439.492,492.959,440.507,494.200,441.522,495.215 C442.650,496.343,443.891,497.245,445.019,498.148 C445.696,498.712,446.485,499.163,447.162,499.501 C448.515,500.291,449.982,500.855,451.448,501.419 C452.238,501.757,453.027,501.983,453.817,502.208 C455.396,502.547,456.975,502.772,458.554,502.885 C459.456,502.885,460.358,502.885,461.261,502.885 C463.742,502.659,466.224,502.321,468.479,501.419 C470.735,500.516,472.878,499.614,474.796,498.148 Z M458.667,485.966 C457.877,485.741,457.088,485.515,456.411,485.290 C455.734,484.951,455.057,484.500,454.381,484.162 C453.817,483.598,453.253,483.034,452.801,482.470 C452.350,481.793,451.899,481.116,451.561,480.440 C451.335,479.763,451.110,478.973,450.997,478.184 C450.884,477.394,450.884,476.492,450.884,475.703 C450.884,474.123,450.884,472.657,450.884,471.078 C450.884,466.228,450.884,461.491,450.884,456.641 C450.884,452.468,450.884,448.295,450.884,444.121 C450.884,442.993,450.884,441.865,450.997,440.738 C451.110,439.948,451.335,439.159,451.561,438.482 C451.899,437.805,452.350,437.128,452.801,436.452 C453.253,435.888,453.817,435.324,454.381,434.873 C455.057,434.421,455.734,433.970,456.411,433.632 C457.088,433.406,457.877,433.181,458.667,433.068 C459.456,432.955,460.246,432.955,461.148,433.068 C461.937,433.181,462.614,433.406,463.404,433.632 C464.081,433.970,464.757,434.421,465.434,434.873 C465.998,435.324,466.562,435.888,467.013,436.452 C467.464,437.128,467.915,437.805,468.254,438.482 C468.479,439.159,468.705,439.948,468.818,440.738 C468.818,441.527,468.930,442.317,468.930,443.106 C468.930,444.685,468.930,446.152,468.930,447.731 C468.930,452.468,468.930,457.318,468.930,462.055 C468.930,466.341,468.930,470.514,468.930,474.687 C468.930,475.364,468.930,476.154,468.930,476.943 C468.930,477.394,468.818,477.733,468.818,478.184 C468.705,478.973,468.479,479.763,468.254,480.440 C467.915,481.116,467.464,481.793,467.013,482.470 C466.562,483.034,465.998,483.598,465.434,484.162 C464.757,484.500,464.081,484.951,463.404,485.290 C462.614,485.515,461.937,485.741,461.148,485.966 C460.246,485.966,459.456,485.966,458.667,485.966 Z M548.326,418.744 C545.394,418.744,542.461,418.744,539.416,418.744 C535.468,418.744,531.521,418.744,527.686,418.744 C527.573,418.744,527.573,418.744,527.573,418.744 C527.347,418.744,527.122,418.744,526.896,418.744 C526.896,418.744,526.784,418.744,526.784,418.744 C523.738,418.744,520.806,418.744,517.873,418.744 C513.925,418.744,509.978,418.744,506.030,418.744 C506.030,418.744,506.030,418.744,506.030,418.744 C501.406,418.744,497.571,422.578,497.571,427.203 C497.571,431.827,501.406,435.662,506.030,435.662 C509.865,435.662,513.700,435.662,517.535,435.662 C518.099,435.662,518.550,435.662,519.114,435.662 C519.114,437.918,519.114,440.174,519.114,442.429 C519.114,447.279,519.114,452.129,519.114,456.979 C519.114,461.942,519.114,467.018,519.114,472.093 C519.114,476.266,519.114,480.440,519.114,484.613 C519.114,486.982,519.114,489.350,519.114,491.606 C519.114,491.832,519.114,492.057,519.114,492.170 C519.114,496.794,522.949,500.742,527.573,500.742 C532.197,500.742,536.032,496.794,536.032,492.170 C536.032,490.816,536.032,489.350,536.032,487.884 C536.032,484.275,536.032,480.553,536.032,476.943 C536.032,472.093,536.032,467.243,536.032,462.393 C536.032,457.431,536.032,452.355,536.032,447.392 C536.032,443.445,536.032,439.497,536.032,435.662 C537.047,435.662,538.063,435.662,539.078,435.662 C542.123,435.662,545.168,435.662,548.214,435.662 C548.214,435.662,548.326,435.662,548.326,435.662 C552.951,435.662,556.786,431.827,556.786,427.203 C556.786,422.578,552.951,418.744,548.326,418.744 Z M609.338,498.148 C610.578,497.133,611.819,496.230,612.834,495.215 C613.962,494.087,614.864,492.847,615.767,491.606 C617.233,489.689,618.135,487.546,618.925,485.290 C619.376,484.275,619.601,483.259,619.827,482.244 C620.053,480.553,620.391,478.748,620.391,476.943 C620.391,474.575,620.391,472.206,620.391,469.725 C620.391,464.875,620.391,460.025,620.391,455.062 C620.391,451.227,620.391,447.279,620.391,443.332 C620.391,442.429,620.391,441.414,620.278,440.399 C620.053,438.031,619.714,435.549,618.812,433.181 C618.248,431.827,617.684,430.361,616.895,429.007 C616.105,427.654,615.203,426.526,614.188,425.285 C612.721,423.368,610.917,421.902,608.999,420.548 C607.082,419.082,604.826,418.180,602.570,417.390 C601.781,417.052,600.878,416.826,600.089,416.713 C598.510,416.375,596.931,416.149,595.352,416.037 C594.449,416.037,593.547,416.037,592.645,416.149 C591.066,416.262,589.487,416.488,587.907,416.826 C587.005,417.052,586.216,417.390,585.426,417.728 C583.960,418.292,582.606,418.856,581.253,419.646 C579.899,420.435,578.771,421.450,577.531,422.353 C576.854,422.917,576.290,423.481,575.726,424.045 C574.711,425.173,573.696,426.413,572.906,427.654 C572.342,428.331,571.891,429.007,571.553,429.797 C570.425,431.940,569.523,434.196,569.071,436.564 C568.733,438.707,568.508,440.738,568.508,442.881 C568.508,444.347,568.508,445.813,568.508,447.279 C568.508,452.017,568.508,456.867,568.508,461.604 C568.508,465.890,568.508,470.063,568.508,474.349 C568.508,475.251,568.508,476.041,568.508,476.943 C568.508,478.973,568.846,481.004,569.184,482.921 C569.410,483.711,569.635,484.613,569.974,485.403 C570.425,486.869,571.102,488.222,571.778,489.576 C572.230,490.365,572.681,491.042,573.132,491.719 C574.034,492.959,575.049,494.200,576.064,495.215 C577.192,496.343,578.433,497.245,579.561,498.148 C580.238,498.712,581.027,499.163,581.704,499.501 C583.057,500.291,584.524,500.855,585.990,501.419 C586.780,501.757,587.569,501.983,588.359,502.208 C589.938,502.547,591.517,502.772,593.096,502.885 C593.998,502.885,594.900,502.885,595.803,502.885 C598.284,502.659,600.766,502.321,603.021,501.419 C605.277,500.516,607.420,499.614,609.338,498.148 Z M593.209,485.966 C592.419,485.741,591.630,485.515,590.953,485.290 C590.276,484.951,589.599,484.500,588.923,484.162 C588.359,483.598,587.795,483.034,587.344,482.470 C586.892,481.793,586.441,481.116,586.103,480.440 C585.877,479.763,585.652,478.973,585.539,478.184 C585.426,477.394,585.426,476.492,585.426,475.703 C585.426,474.123,585.426,472.657,585.426,471.078 C585.426,466.228,585.426,461.491,585.426,456.641 C585.426,452.468,585.426,448.295,585.426,444.121 C585.426,442.993,585.426,441.865,585.539,440.738 C585.652,439.948,585.877,439.159,586.103,438.482 C586.441,437.805,586.892,437.128,587.344,436.452 C587.795,435.888,588.359,435.324,588.923,434.873 C589.599,434.421,590.276,433.970,590.953,433.632 C591.630,433.406,592.419,433.181,593.209,433.068 C593.998,432.955,594.788,432.955,595.690,433.068 C596.480,433.181,597.156,433.406,597.946,433.632 C598.623,433.970,599.299,434.421,599.976,434.873 C600.540,435.324,601.104,435.888,601.555,436.452 C602.006,437.128,602.457,437.805,602.796,438.482 C603.021,439.159,603.247,439.948,603.360,440.738 C603.360,441.527,603.472,442.317,603.472,443.106 C603.472,444.685,603.472,446.152,603.472,447.731 C603.472,452.468,603.472,457.318,603.472,462.055 C603.472,466.341,603.472,470.514,603.472,474.687 C603.472,475.364,603.472,476.154,603.472,476.943 C603.472,477.394,603.360,477.733,603.360,478.184 C603.247,478.973,603.021,479.763,602.796,480.440 C602.457,481.116,602.006,481.793,601.555,482.470 C601.104,483.034,600.540,483.598,599.976,484.162 C599.299,484.500,598.623,484.951,597.946,485.290 C597.156,485.515,596.480,485.741,595.690,485.966 C594.788,485.966,593.998,485.966,593.209,485.966 Z M640.572,500.291 C645.197,500.291,649.031,496.456,649.031,491.832 C649.031,490.478,649.031,489.012,649.031,487.546 C649.031,483.936,649.031,480.214,649.031,476.605 C649.031,471.755,649.031,466.905,649.031,462.055 C649.031,459.235,649.031,456.528,649.031,453.821 C651.738,457.656,654.445,461.491,657.152,465.326 C659.972,469.386,662.792,473.447,665.612,477.507 C668.093,481.004,670.462,484.387,672.830,487.771 C674.409,490.027,675.988,492.283,677.567,494.426 C677.906,494.990,678.244,495.554,678.695,496.118 C679.372,497.358,680.387,498.373,681.741,499.163 C683.658,500.291,686.027,500.516,688.282,499.952 C691.892,498.937,694.486,495.554,694.486,491.832 C694.486,490.365,694.486,488.899,694.486,487.433 C694.486,483.823,694.486,480.101,694.486,476.492 C694.486,471.642,694.486,466.792,694.486,461.829 C694.486,456.867,694.486,451.904,694.486,446.828 C694.486,442.655,694.486,438.482,694.486,434.421 C694.486,432.166,694.486,429.910,694.486,427.654 C694.486,427.428,694.486,427.316,694.486,427.090 C694.486,422.466,690.538,418.631,686.027,418.631 C681.402,418.631,677.455,422.466,677.455,427.090 C677.455,428.556,677.455,430.023,677.455,431.489 C677.455,435.098,677.455,438.820,677.455,442.429 C677.455,447.392,677.455,452.242,677.455,457.092 C677.455,459.686,677.455,462.393,677.455,464.987 C674.748,461.153,672.041,457.318,669.334,453.483 C666.514,449.422,663.694,445.362,660.874,441.302 C658.393,437.918,656.024,434.421,653.656,431.038 C652.077,428.782,650.498,426.639,649.031,424.383 C648.580,423.819,648.242,423.255,647.791,422.691 C647.114,421.450,646.099,420.435,644.745,419.759 C642.828,418.518,640.459,418.292,638.316,418.856 C634.594,419.871,632.113,423.255,632.113,426.977 C632.113,428.443,632.113,429.910,632.113,431.376 C632.113,434.985,632.113,438.707,632.113,442.317 C632.113,447.167,632.113,452.017,632.113,456.867 C632.113,461.942,632.113,466.905,632.113,471.980 C632.113,476.154,632.113,480.327,632.113,484.500 C632.113,486.756,632.113,489.012,632.113,491.380 C632.113,491.493,632.113,491.719,632.113,491.832 C632.113,496.456,635.948,500.291,640.572,500.291 Z M311.858,582.004 C315.326,582.004,318.202,579.128,318.202,575.659 C318.202,574.644,318.202,573.545,318.202,572.445 C318.202,569.738,318.202,566.947,318.202,564.240 C318.202,560.603,318.202,556.966,318.202,553.328 C318.202,551.214,318.202,549.184,318.202,547.154 C320.232,550.029,322.263,552.905,324.293,555.781 C326.407,558.827,328.522,561.872,330.637,564.917 C332.498,567.539,334.274,570.077,336.050,572.614 C337.234,574.306,338.419,575.998,339.603,577.605 C339.857,578.028,340.110,578.451,340.449,578.874 C340.956,579.804,341.718,580.566,342.733,581.158 C344.171,582.004,345.947,582.173,347.639,581.750 C350.346,580.988,352.291,578.451,352.291,575.659 C352.291,574.560,352.291,573.460,352.291,572.361 C352.291,569.654,352.291,566.862,352.291,564.156 C352.291,560.518,352.291,556.881,352.291,553.159 C352.291,549.437,352.291,545.716,352.291,541.909 C352.291,538.779,352.291,535.650,352.291,532.604 C352.291,530.913,352.291,529.221,352.291,527.529 C352.291,527.360,352.291,527.275,352.291,527.106 C352.291,523.638,349.330,520.762,345.947,520.762 C342.479,520.762,339.518,523.638,339.518,527.106 C339.518,528.206,339.518,529.306,339.518,530.405 C339.518,533.112,339.518,535.903,339.518,538.610 C339.518,542.332,339.518,545.969,339.518,549.607 C339.518,551.552,339.518,553.582,339.518,555.528 C337.488,552.652,335.458,549.776,333.428,546.900 C331.313,543.855,329.199,540.809,327.084,537.764 C325.223,535.227,323.447,532.604,321.670,530.067 C320.486,528.375,319.302,526.768,318.202,525.076 C317.864,524.653,317.610,524.230,317.272,523.807 C316.764,522.877,316.003,522.116,314.988,521.608 C313.550,520.678,311.774,520.508,310.166,520.931 C307.375,521.693,305.514,524.230,305.514,527.022 C305.514,528.121,305.514,529.221,305.514,530.321 C305.514,533.027,305.514,535.819,305.514,538.526 C305.514,542.163,305.514,545.800,305.514,549.437 C305.514,553.244,305.514,556.966,305.514,560.772 C305.514,563.902,305.514,567.032,305.514,570.161 C305.514,571.853,305.514,573.545,305.514,575.321 C305.514,575.406,305.514,575.575,305.514,575.659 C305.514,579.128,308.390,582.004,311.858,582.004 Z M372.924,532.774 C372.924,532.774,372.924,532.774,373.009,532.774 C376.731,532.774,380.452,532.774,384.259,532.774 C386.289,532.774,388.319,532.774,390.349,532.774 C390.349,532.774,390.349,532.774,390.349,532.774 C393.563,532.774,396.270,530.151,396.270,526.853 C396.270,523.638,393.563,521.016,390.349,521.016 C388.319,521.016,386.374,521.016,384.343,521.016 C380.622,521.016,376.815,521.016,373.093,521.016 C371.063,521.016,369.033,521.016,367.003,521.016 C367.003,521.016,367.003,521.016,367.003,521.016 C363.789,521.016,361.082,523.638,361.082,526.853 C361.082,527.952,361.082,529.052,361.082,530.151 C361.082,532.943,361.082,535.734,361.082,538.526 C361.082,542.163,361.082,545.885,361.082,549.607 C361.082,553.413,361.082,557.219,361.082,561.026 C361.082,564.156,361.082,567.370,361.082,570.584 C361.082,572.276,361.082,574.052,361.082,575.829 C361.082,575.998,361.082,576.167,361.082,576.252 C361.082,579.466,363.789,582.173,367.003,582.173 C369.033,582.173,371.063,582.173,373.093,582.173 C376.815,582.173,380.537,582.173,384.259,582.173 C386.204,582.173,388.065,582.173,390.011,582.173 C393.225,582.173,395.932,579.466,395.932,576.252 C395.932,573.037,393.225,570.330,390.011,570.330 C387.981,570.330,385.951,570.330,383.920,570.330 C380.199,570.330,376.561,570.330,372.924,570.330 C372.924,568.470,372.924,566.524,372.924,564.663 C372.924,562.633,372.924,560.603,372.924,558.573 C373.347,558.573,373.855,558.573,374.278,558.573 C377.999,558.573,381.637,558.573,385.358,558.573 C386.543,558.573,387.812,558.573,389.080,558.573 C392.295,558.573,395.001,555.951,395.001,552.736 C395.001,549.437,392.295,546.815,389.080,546.815 C386.966,546.815,384.766,546.815,382.652,546.815 C379.353,546.815,376.138,546.815,372.924,546.815 C372.924,545.208,372.924,543.685,372.924,542.163 C372.924,539.033,372.924,535.903,372.924,532.774 Z M443.125,520.847 C440.926,520.847,438.727,520.847,436.443,520.847 C433.482,520.847,430.522,520.847,427.646,520.847 C427.561,520.847,427.561,520.847,427.561,520.847 C427.392,520.847,427.223,520.847,427.054,520.847 C427.054,520.847,426.969,520.847,426.969,520.847 C424.685,520.847,422.486,520.847,420.287,520.847 C417.326,520.847,414.366,520.847,411.405,520.847 C411.405,520.847,411.405,520.847,411.405,520.847 C407.937,520.847,405.061,523.723,405.061,527.191 C405.061,530.659,407.937,533.535,411.405,533.535 C414.281,533.535,417.157,533.535,420.033,533.535 C420.456,533.535,420.794,533.535,421.217,533.535 C421.217,535.227,421.217,536.918,421.217,538.610 C421.217,542.247,421.217,545.885,421.217,549.522 C421.217,553.244,421.217,557.050,421.217,560.857 C421.217,563.986,421.217,567.116,421.217,570.246 C421.217,572.022,421.217,573.799,421.217,575.490 C421.217,575.659,421.217,575.829,421.217,575.913 C421.217,579.381,424.093,582.342,427.561,582.342 C431.029,582.342,433.905,579.381,433.905,575.913 C433.905,574.898,433.905,573.799,433.905,572.699 C433.905,569.992,433.905,567.201,433.905,564.494 C433.905,560.857,433.905,557.219,433.905,553.582 C433.905,549.860,433.905,546.054,433.905,542.332 C433.905,539.371,433.905,536.411,433.905,533.535 C434.667,533.535,435.428,533.535,436.189,533.535 C438.473,533.535,440.757,533.535,443.041,533.535 C443.041,533.535,443.125,533.535,443.125,533.535 C446.594,533.535,449.470,530.659,449.470,527.191 C449.470,523.723,446.594,520.847,443.125,520.847 Z M541.325,520.931 C539.718,520.508,537.942,520.762,536.504,521.608 C534.981,522.454,534.051,523.807,533.543,525.415 C533.289,526.345,532.951,527.275,532.697,528.206 C531.936,530.659,531.259,533.112,530.498,535.565 C529.483,539.033,528.383,542.417,527.368,545.885 C526.184,549.860,525.000,553.751,523.816,557.727 C522.885,560.941,521.870,564.240,520.940,567.454 C520.940,567.454,520.855,567.454,520.855,567.454 C519.755,563.479,518.571,559.588,517.387,555.612 C516.287,551.721,515.103,547.915,513.919,544.024 C512.988,540.640,511.973,537.341,510.958,534.042 C510.366,531.759,509.690,529.559,509.013,527.360 C508.844,526.683,508.674,526.007,508.421,525.415 C507.998,523.807,506.983,522.454,505.545,521.608 C504.530,521.016,503.345,520.678,502.161,520.762 C501.062,520.678,499.877,521.016,498.862,521.608 C497.424,522.454,496.409,523.807,495.902,525.415 C495.648,526.345,495.394,527.275,495.056,528.206 C494.379,530.659,493.618,533.112,492.857,535.565 C491.842,539.033,490.827,542.417,489.811,545.885 C488.627,549.860,487.443,553.751,486.259,557.727 C485.244,560.941,484.229,564.240,483.298,567.454 C483.298,567.454,483.298,567.454,483.298,567.454 C482.114,563.479,480.930,559.588,479.746,555.612 C478.646,551.721,477.462,547.915,476.362,544.024 C475.347,540.640,474.332,537.341,473.402,534.042 C472.725,531.759,472.048,529.559,471.371,527.360 C471.202,526.683,471.033,526.007,470.864,525.415 C470.356,523.807,469.341,522.454,467.903,521.608 C466.465,520.762,464.689,520.508,462.997,520.931 C459.698,521.862,457.584,525.415,458.599,528.798 C458.852,529.728,459.106,530.659,459.445,531.589 C460.121,534.042,470.526,569.146,471.625,573.037 C471.710,573.122,471.710,573.206,471.710,573.291 L471.964,573.968 C472.133,574.475,472.302,574.898,472.471,575.406 C473.909,578.535,476.700,580.988,480.084,581.919 C480.084,581.919,480.084,581.919,480.084,581.919 C480.422,582.088,480.845,582.173,481.184,582.173 C481.184,582.173,481.184,582.173,481.184,582.173 C481.184,582.173,481.184,582.173,481.184,582.173 C481.776,582.257,482.368,582.342,482.875,582.342 C483.129,582.342,483.383,582.342,483.637,582.342 C484.229,582.342,484.821,582.342,485.328,582.173 C485.328,582.173,485.328,582.173,485.328,582.173 C485.328,582.173,485.328,582.173,485.328,582.173 C485.751,582.173,486.090,582.088,486.428,581.919 C486.428,581.919,486.428,581.919,486.513,581.919 C486.513,581.919,486.513,581.919,486.513,581.919 C486.513,581.919,486.513,581.919,486.513,581.919 C489.896,580.988,492.687,578.535,494.041,575.321 C494.210,574.898,494.379,574.475,494.548,574.052 C494.633,573.714,494.802,573.376,494.887,573.037 C494.887,573.037,499.031,559.334,502.161,548.930 C505.206,559.334,508.590,570.923,509.267,573.037 C509.267,573.122,509.351,573.206,509.351,573.291 L509.605,573.968 C509.774,574.475,509.943,574.898,510.112,575.406 C511.550,578.535,514.257,580.988,517.641,581.919 C517.641,581.919,517.725,581.919,517.725,581.919 C518.064,582.088,518.402,582.173,518.825,582.173 C518.825,582.173,518.825,582.173,518.825,582.173 C518.825,582.173,518.825,582.173,518.825,582.173 C519.417,582.257,519.925,582.342,520.517,582.342 C520.770,582.342,521.024,582.342,521.278,582.342 C521.870,582.342,522.462,582.342,522.970,582.173 C522.970,582.173,522.970,582.173,522.970,582.173 C522.970,582.173,522.970,582.173,522.970,582.173 C523.308,582.173,523.731,582.088,524.069,581.919 C524.069,581.919,524.069,581.919,524.069,581.919 C524.069,581.919,524.069,581.919,524.069,581.919 C524.069,581.919,524.069,581.919,524.069,581.919 C527.537,580.988,530.329,578.535,531.682,575.321 C531.851,574.898,532.021,574.475,532.105,574.052 C532.274,573.714,532.359,573.376,532.528,573.037 C532.528,573.037,542.171,540.809,543.186,537.426 C543.863,535.227,544.540,533.027,545.216,530.744 C545.385,530.067,545.639,529.475,545.808,528.798 C546.823,525.499,544.624,521.862,541.325,520.931 Z M585.474,580.396 C586.404,579.635,587.335,578.958,588.096,578.197 C588.942,577.351,589.618,576.421,590.295,575.490 C591.395,574.052,592.071,572.445,592.664,570.753 C593.002,569.992,593.171,569.231,593.340,568.470 C593.509,567.201,593.763,565.847,593.763,564.494 C593.763,562.718,593.763,560.941,593.763,559.080 C593.763,555.443,593.763,551.806,593.763,548.084 C593.763,545.208,593.763,542.247,593.763,539.287 C593.763,538.610,593.763,537.849,593.679,537.088 C593.509,535.311,593.256,533.450,592.579,531.674 C592.156,530.659,591.733,529.559,591.141,528.544 C590.549,527.529,589.872,526.683,589.111,525.753 C588.011,524.315,586.658,523.215,585.220,522.200 C583.782,521.101,582.090,520.424,580.398,519.832 C579.806,519.578,579.130,519.409,578.537,519.324 C577.353,519.070,576.169,518.901,574.985,518.817 C574.308,518.817,573.631,518.817,572.955,518.901 C571.770,518.986,570.586,519.155,569.402,519.409 C568.725,519.578,568.133,519.832,567.541,520.086 C566.441,520.508,565.426,520.931,564.411,521.524 C563.396,522.116,562.550,522.877,561.620,523.554 C561.112,523.977,560.689,524.399,560.267,524.822 C559.505,525.668,558.744,526.599,558.152,527.529 C557.729,528.037,557.391,528.544,557.137,529.136 C556.291,530.744,555.614,532.435,555.276,534.212 C555.022,535.819,554.853,537.341,554.853,538.949 C554.853,540.048,554.853,541.148,554.853,542.247 C554.853,545.800,554.853,549.437,554.853,552.990 C554.853,556.204,554.853,559.334,554.853,562.548 C554.853,563.225,554.853,563.817,554.853,564.494 C554.853,566.017,555.107,567.539,555.360,568.977 C555.530,569.569,555.699,570.246,555.953,570.838 C556.291,571.938,556.798,572.953,557.306,573.968 C557.644,574.560,557.983,575.067,558.321,575.575 C558.998,576.505,559.759,577.436,560.520,578.197 C561.366,579.043,562.297,579.720,563.143,580.396 C563.650,580.819,564.242,581.158,564.750,581.411 C565.765,582.004,566.864,582.426,567.964,582.849 C568.556,583.103,569.148,583.272,569.740,583.442 C570.925,583.695,572.109,583.864,573.293,583.949 C573.970,583.949,574.646,583.949,575.323,583.949 C577.184,583.780,579.045,583.526,580.737,582.849 C582.428,582.173,584.036,581.496,585.474,580.396 Z M573.378,571.261 C572.785,571.092,572.193,570.923,571.686,570.753 C571.178,570.500,570.671,570.161,570.163,569.908 C569.740,569.485,569.317,569.062,568.979,568.639 C568.641,568.131,568.302,567.624,568.049,567.116 C567.879,566.609,567.710,566.017,567.626,565.424 C567.541,564.832,567.541,564.156,567.541,563.563 C567.541,562.379,567.541,561.280,567.541,560.095 C567.541,556.458,567.541,552.905,567.541,549.268 C567.541,546.138,567.541,543.009,567.541,539.879 C567.541,539.033,567.541,538.187,567.626,537.341 C567.710,536.749,567.879,536.157,568.049,535.650 C568.302,535.142,568.641,534.635,568.979,534.127 C569.317,533.704,569.740,533.281,570.163,532.943 C570.671,532.604,571.178,532.266,571.686,532.012 C572.193,531.843,572.785,531.674,573.378,531.589 C573.970,531.505,574.562,531.505,575.239,531.589 C575.831,531.674,576.338,531.843,576.930,532.012 C577.438,532.266,577.945,532.604,578.453,532.943 C578.876,533.281,579.299,533.704,579.637,534.127 C579.975,534.635,580.314,535.142,580.568,535.650 C580.737,536.157,580.906,536.749,580.990,537.341 C580.990,537.933,581.075,538.526,581.075,539.118 C581.075,540.302,581.075,541.402,581.075,542.586 C581.075,546.138,581.075,549.776,581.075,553.328 C581.075,556.543,581.075,559.672,581.075,562.802 C581.075,563.310,581.075,563.902,581.075,564.494 C581.075,564.832,580.990,565.086,580.990,565.424 C580.906,566.017,580.737,566.609,580.568,567.116 C580.314,567.624,579.975,568.131,579.637,568.639 C579.299,569.062,578.876,569.485,578.453,569.908 C577.945,570.161,577.438,570.500,576.930,570.753 C576.338,570.923,575.831,571.092,575.239,571.261 C574.562,571.261,573.970,571.261,573.378,571.261 Z M608.898,582.088 C612.366,582.088,615.327,579.212,615.327,575.744 C615.327,574.221,615.327,572.784,615.327,571.261 C615.327,568.808,615.327,566.355,615.327,563.902 C616.342,563.902,617.357,563.902,618.456,563.902 C619.641,563.902,620.825,563.902,621.925,563.817 C622.517,563.817,623.109,563.733,623.701,563.648 C624.124,564.579,624.462,565.509,624.885,566.355 C626.323,569.654,627.761,572.953,629.199,576.167 C629.537,577.097,629.960,577.943,630.299,578.789 C630.637,579.212,630.975,579.635,631.314,580.058 C632.075,580.904,633.005,581.411,634.105,581.750 C635.712,582.173,637.573,581.919,639.011,581.073 C640.449,580.227,641.464,578.874,641.887,577.267 C641.972,576.759,642.056,576.167,642.141,575.575 C642.141,574.475,641.887,573.376,641.295,572.361 C640.449,570.415,639.519,568.385,638.673,566.439 C637.489,563.733,636.304,561.110,635.205,558.404 C635.628,558.065,636.051,557.642,636.389,557.219 C637.150,556.458,637.912,555.528,638.588,554.597 C638.927,554.090,639.265,553.582,639.603,552.990 C640.195,551.975,640.618,550.960,641.041,549.860 C641.295,549.268,641.464,548.676,641.633,547.999 C641.887,547.407,641.972,546.731,642.056,546.138 C642.226,544.954,642.395,543.685,642.479,542.501 C642.479,541.825,642.395,541.148,642.310,540.471 C642.226,539.287,642.056,538.103,641.803,537.003 C641.633,536.326,641.464,535.734,641.210,535.142 C640.788,534.042,640.365,532.943,639.857,531.928 C639.519,531.420,639.180,530.828,638.842,530.321 C638.165,529.390,637.489,528.460,636.727,527.614 C635.543,526.260,634.105,525.161,632.667,524.230 C631.145,523.215,629.537,522.454,627.846,521.862 C626.069,521.185,624.293,520.931,622.432,520.762 C621.248,520.593,620.064,520.678,618.879,520.678 C615.665,520.678,612.451,520.678,609.321,520.678 C609.236,520.678,609.152,520.678,609.067,520.678 C607.375,520.678,605.768,521.354,604.584,522.539 C603.400,523.723,602.723,525.330,602.723,527.022 C602.723,529.559,602.639,532.182,602.639,534.804 C602.639,537.172,602.554,539.625,602.554,542.078 C602.554,543.685,602.554,545.208,602.554,546.815 C602.554,550.283,602.554,553.667,602.554,557.135 C602.554,560.772,602.554,564.494,602.554,568.131 C602.554,570.500,602.554,572.784,602.554,575.152 C602.554,575.321,602.554,575.575,602.554,575.744 C602.554,579.212,605.515,582.088,608.898,582.088 Z M622.009,533.450 C622.770,533.535,623.532,533.789,624.293,534.042 C624.970,534.381,625.646,534.719,626.323,535.227 C626.831,535.650,627.423,536.242,627.930,536.834 C628.353,537.426,628.776,538.103,629.114,538.779 C629.368,539.541,629.537,540.302,629.707,541.063 C629.791,541.909,629.791,542.670,629.707,543.516 C629.537,544.278,629.368,545.039,629.114,545.716 C628.776,546.477,628.353,547.069,627.930,547.746 C627.423,548.338,626.831,548.845,626.323,549.353 C625.646,549.776,624.970,550.199,624.293,550.537 C623.616,550.791,622.855,550.960,622.094,551.129 C621.079,551.214,620.064,551.214,619.049,551.214 C617.780,551.214,616.511,551.214,615.327,551.214 C615.327,550.791,615.327,550.452,615.327,550.029 C615.327,547.661,615.327,545.208,615.327,542.840 C615.327,541.402,615.327,539.964,615.327,538.610 C615.327,536.834,615.327,535.142,615.327,533.366 C616.088,533.366,616.849,533.366,617.526,533.366 C619.049,533.366,620.571,533.281,622.009,533.450 Z M686.459,521.608 C684.851,522.031,683.583,523.046,682.737,524.484 C681.806,525.922,680.960,527.360,680.030,528.798 C678.169,531.759,676.308,534.804,674.363,537.849 C672.840,540.387,671.233,542.924,669.626,545.377 C667.765,545.377,665.819,545.377,663.874,545.377 C663.874,544.362,663.874,543.262,663.874,542.163 C663.874,539.118,663.874,535.988,663.874,532.858 C663.874,531.166,663.874,529.475,663.874,527.783 C663.874,527.614,663.874,527.529,663.874,527.445 C663.874,523.977,660.998,521.101,657.530,521.101 C654.146,521.101,651.270,523.977,651.270,527.445 C651.270,528.460,651.270,529.559,651.270,530.659 C651.270,533.366,651.270,536.073,651.270,538.864 C651.270,542.417,651.270,546.054,651.270,549.691 C651.270,553.413,651.270,557.219,651.270,560.941 C651.270,564.071,651.270,567.116,651.270,570.246 C651.270,571.938,651.270,573.629,651.270,575.321 C651.270,575.490,651.270,575.575,651.270,575.744 C651.270,579.128,654.146,582.004,657.530,582.004 C660.998,582.004,663.874,579.128,663.874,575.744 C663.874,574.644,663.874,573.545,663.874,572.445 C663.874,569.738,663.874,567.032,663.874,564.240 C663.874,562.210,663.874,560.095,663.874,558.065 C665.058,558.065,666.158,558.065,667.342,558.065 C668.018,558.065,668.780,558.065,669.541,558.065 C669.795,558.488,670.049,558.911,670.387,559.334 C672.248,562.379,674.193,565.424,676.139,568.470 C677.831,571.176,679.607,573.968,681.299,576.675 C681.806,577.436,682.229,578.197,682.737,578.874 C683.583,580.312,684.851,581.327,686.459,581.834 C688.150,582.257,689.927,582.004,691.365,581.158 C692.803,580.312,693.818,578.958,694.241,577.351 C694.663,575.829,694.494,573.968,693.648,572.530 C692.718,571.092,691.788,569.654,690.942,568.216 C688.996,565.171,687.051,562.125,685.190,559.165 C683.583,556.712,682.060,554.259,680.537,551.890 C680.791,551.467,680.960,551.129,681.214,550.791 C683.075,547.746,685.021,544.700,686.881,541.655 C688.658,538.864,690.350,536.073,692.126,533.281 C692.633,532.520,693.141,531.674,693.648,530.828 C695.425,527.952,694.241,523.892,691.365,522.200 C689.927,521.354,688.150,521.101,686.459,521.608 Z" fill="#fff" id="def-02673c7c-139e-404c-a613-2bac1eb4929d"></path><path d="M331.280,301.797 Q333.211,300.479,335.217,300.566 Q337.223,300.653,339.003,302.713 L339.003,302.713 Q341.086,305.124,340.474,307.715 Q339.862,310.306,336.948,312.824 L336.948,312.824 L332.252,316.883 L317.384,299.679 L321.227,296.358 Q324.216,293.775,326.769,293.455 Q329.322,293.135,331.167,295.270 L331.167,295.270 Q332.534,296.852,332.514,298.581 Q332.494,300.309,331.280,301.797 L331.280,301.797 Z M322.463,297.484 L319.976,299.632 L325.424,305.936 L328.890,302.941 Q330.497,301.552,330.750,299.864 Q331.002,298.176,329.722,296.695 L329.722,296.695 Q328.267,295.012,326.495,295.271 Q324.723,295.530,322.463,297.484 L322.463,297.484 Z M335.863,311.568 Q340.484,307.575,337.446,304.059 L337.446,304.059 Q335.840,302.200,333.915,302.283 Q331.991,302.367,330.108,303.995 L330.108,303.995 L326.466,307.142 L332.673,314.325 L335.863,311.568 Z M359.732,268.039 L368.188,281.189 Q370.019,284.037,369.504,286.795 Q368.988,289.554,365.945,291.511 L365.945,291.511 Q362.874,293.485,360.173,292.814 Q357.473,292.144,355.624,289.268 L355.624,289.268 L347.168,276.117 L348.843,275.040 L357.209,288.051 Q358.753,290.452,360.710,291.009 Q362.666,291.567,365.012,290.059 L365.012,290.059 Q367.357,288.551,367.639,286.534 Q367.921,284.518,366.395,282.145 L366.395,282.145 L358.029,269.134 L359.732,268.039 Z M381.852,256.140 L383.648,255.279 L393.487,275.778 L391.691,276.639 L381.852,256.140 Z M406.973,245.433 L408.858,244.789 L415.628,264.610 L424.612,261.541 L424.940,263.323 L414.323,266.950 L406.973,245.433 Z M444.090,234.842 Q448.712,233.922,452.060,235.692 Q455.408,237.462,456.660,243.745 L456.660,243.745 Q457.911,250.028,455.500,253.131 Q453.089,256.234,448.889,257.071 L448.889,257.071 L444.104,258.024 L439.662,235.724 L444.090,234.842 Z M444.674,236.418 L441.940,236.963 L445.733,256.007 L448.695,255.417 Q456.541,253.854,454.609,244.153 L454.609,244.153 Q453.844,240.312,452.296,238.488 Q450.748,236.664,448.867,236.311 Q446.986,235.958,444.674,236.418 L444.674,236.418 Z M506.404,251.822 L504.414,251.741 L505.338,229.022 L516.681,229.483 L516.381,231.132 L507.260,230.761 L506.900,239.617 L514.761,239.936 L514.693,241.595 L506.833,241.275 L506.404,251.822 Z M553.825,234.323 L551.144,249.726 Q550.563,253.062,548.316,254.743 Q546.070,256.424,542.505,255.804 L542.505,255.804 Q538.908,255.177,537.375,252.855 Q535.841,250.533,536.428,247.165 L536.428,247.165 L539.109,231.762 L541.071,232.104 L538.418,247.343 Q537.929,250.155,538.991,251.890 Q540.054,253.625,542.801,254.103 L542.801,254.103 Q545.548,254.581,547.121,253.288 Q548.693,251.995,549.177,249.216 L549.177,249.216 L551.830,233.976 L553.825,234.323 Z M575.454,239.629 L590.307,244.401 L589.548,246.005 L583.196,243.964 L576.779,263.938 L574.915,263.338 L581.331,243.365 L574.916,241.304 L575.454,239.629 Z M624.273,259.091 L617.491,273.177 Q616.022,276.228,613.402,277.232 Q610.782,278.237,607.522,276.667 L607.522,276.667 Q604.232,275.083,603.391,272.431 Q602.549,269.778,604.032,266.698 L604.032,266.698 L610.814,252.611 L612.609,253.475 L605.899,267.412 Q604.661,269.984,605.210,271.943 Q605.758,273.902,608.271,275.112 L608.271,275.112 Q610.783,276.321,612.649,275.507 Q614.515,274.692,615.739,272.150 L615.739,272.150 L622.449,258.212 L624.273,259.091 Z M643.984,297.729 L644.870,285.999 L641.113,283.438 L635.372,291.858 L633.727,290.736 L646.535,271.949 L651.088,275.052 Q657.780,279.615,654.302,284.716 L654.302,284.716 Q652.918,286.746,651.026,287.223 Q649.133,287.701,646.721,286.820 L646.721,286.820 L645.931,299.056 L643.984,297.729 Z M642.029,282.094 L645.155,284.225 Q649.873,287.441,652.547,283.519 L652.547,283.519 Q653.855,281.600,653.302,279.877 Q652.749,278.154,650.117,276.359 L650.117,276.359 L647.264,274.414 L642.029,282.094 Z M676.875,294.634 L685.462,302.361 L684.179,303.439 L677.245,297.200 L671.583,303.492 L677.579,308.887 L676.469,310.121 L670.473,304.725 L664.256,311.634 L671.535,318.184 L670.425,319.418 L661.665,311.536 L676.875,294.634 Z M305.138,654.142 L306.248,655.674 L284.912,664.979 L283.452,662.963 L297.146,646.898 L277.611,654.898 L276.189,652.935 L291.665,635.539 L292.852,637.178 L278.474,652.920 L298.304,644.706 L299.609,646.507 L285.678,662.867 L305.138,654.142 Z M319.727,670.653 L321.102,672.094 L304.653,687.792 L303.278,686.351 L319.727,670.653 Z M335.480,686.048 L347.486,696.010 L346.184,697.216 L341.049,692.955 L327.653,709.099 L326.145,707.849 L339.542,691.705 L334.356,687.402 L335.480,686.048 Z M363.917,734.440 L362.222,733.393 L368.066,723.932 L358.803,718.210 L352.959,727.671 L351.265,726.624 L363.215,707.280 L364.909,708.326 L359.693,716.770 L368.956,722.492 L374.172,714.048 L375.866,715.095 L363.917,734.440 Z M416.602,733.934 L431.454,738.709 L430.694,740.313 L424.343,738.271 L417.922,758.243 L416.058,757.643 L422.478,737.672 L416.063,735.609 L416.602,733.934 Z M450.383,743.295 L461.753,745.334 L461.231,746.927 L452.050,745.280 L450.556,753.612 L458.495,755.036 L458.202,756.669 L450.263,755.246 L448.622,764.394 L458.261,766.122 L457.968,767.756 L446.369,765.676 L450.383,743.295 Z M490.266,747.682 Q492.156,747.768,493.442,748.341 Q494.729,748.915,496.007,750.037 L496.007,750.037 L494.885,751.315 Q493.767,750.333,492.724,749.887 Q491.681,749.441,490.321,749.379 L490.321,749.379 Q487.105,749.232,484.987,751.595 Q482.869,753.957,482.636,759.064 L482.636,759.064 Q482.485,762.380,483.311,764.677 Q484.137,766.974,485.696,768.125 Q487.255,769.276,489.311,769.370 L489.311,769.370 Q490.936,769.444,492.085,769.014 Q493.235,768.585,494.438,767.709 L494.438,767.709 L495.407,769.049 Q492.812,771.290,489.165,771.124 L489.165,771.124 Q486.512,771.003,484.502,769.549 Q482.491,768.095,481.434,765.406 Q480.377,762.716,480.547,758.969 L480.547,758.969 Q480.718,755.222,482.065,752.641 Q483.412,750.061,485.546,748.812 Q487.679,747.564,490.266,747.682 L490.266,747.682 Z M533.058,769.050 L531.075,769.238 L530.022,758.168 L519.183,759.199 L520.236,770.269 L518.254,770.458 L516.101,747.822 L518.084,747.634 L519.023,757.514 L529.862,756.483 L528.922,746.603 L530.905,746.414 L533.058,769.050 Z M567.549,738.983 L573.071,761.040 L570.528,761.677 L555.137,744.349 Q556.402,748.310,557.297,751.884 L557.297,751.884 L560.385,764.216 L558.549,764.676 L553.027,742.619 L555.506,741.998 L570.962,759.310 Q569.769,755.639,569.067,752.838 L569.067,752.838 L565.714,739.443 L567.549,738.983 Z M595.848,728.586 Q598.419,727.508,600.868,727.939 Q603.316,728.370,605.415,730.369 Q607.513,732.369,608.964,735.828 L608.964,735.828 Q610.389,739.226,610.353,742.102 Q610.318,744.979,608.922,747.058 Q607.526,749.137,604.924,750.228 L604.924,750.228 Q602.384,751.294,599.929,750.848 Q597.474,750.401,595.389,748.432 Q593.303,746.463,591.865,743.035 L591.865,743.035 Q590.440,739.637,590.484,736.739 Q590.529,733.841,591.933,731.740 Q593.338,729.639,595.848,728.586 L595.848,728.586 Z M596.503,730.147 Q593.442,731.431,592.648,734.518 Q591.855,737.604,593.794,742.226 L593.794,742.226 Q595.706,746.787,598.473,748.363 Q601.239,749.938,604.270,748.667 L604.270,748.667 Q607.423,747.345,608.198,744.302 Q608.974,741.259,607.035,736.637 L607.035,736.637 Q605.084,731.984,602.355,730.411 Q599.625,728.838,596.503,730.147 L596.503,730.147 Z M623.231,715.562 L624.937,714.533 L635.750,732.472 L643.880,727.571 L644.578,729.243 L634.969,735.035 L623.231,715.562 Z M655.202,693.264 Q657.375,691.518,659.848,691.257 Q662.320,690.995,664.889,692.338 Q667.457,693.681,669.806,696.606 L669.806,696.606 Q672.113,699.478,672.873,702.253 Q673.633,705.028,672.865,707.411 Q672.097,709.795,669.897,711.561 L669.897,711.561 Q667.749,713.287,665.267,713.535 Q662.784,713.784,660.236,712.467 Q657.688,711.150,655.360,708.251 L655.360,708.251 Q653.053,705.378,652.296,702.580 Q651.539,699.782,652.309,697.376 Q653.079,694.969,655.202,693.264 L655.202,693.264 Z M656.262,694.584 Q653.674,696.663,653.763,699.848 Q653.852,703.034,656.990,706.941 L656.990,706.941 Q660.088,710.798,663.181,711.548 Q666.275,712.299,668.837,710.242 L668.837,710.242 Q671.503,708.101,671.409,704.962 Q671.314,701.823,668.176,697.915 L668.176,697.915 Q665.016,693.981,661.959,693.223 Q658.901,692.464,656.262,694.584 L656.262,694.584 Z M683.053,667.129 Q684.360,665.715,685.731,665.038 Q687.101,664.361,688.946,664.076 L688.946,664.076 L689.062,665.810 Q687.521,666.059,686.416,666.620 Q685.311,667.180,684.297,668.278 L684.297,668.278 Q682.968,669.716,682.587,671.646 Q682.205,673.575,683.142,675.864 Q684.078,678.152,686.590,680.472 L686.590,680.472 Q690.321,683.918,693.480,684.215 Q696.640,684.512,698.982,681.976 L698.982,681.976 Q700.784,680.026,701.347,677.654 L701.347,677.654 L695.422,672.181 L692.404,675.449 L691.027,674.494 L695.532,669.617 L703.432,676.914 Q702.590,680.565,700.226,683.125 L700.226,683.125 Q697.275,686.319,693.345,686.123 Q689.414,685.927,685.171,682.008 L685.171,682.008 Q682.416,679.463,681.367,676.709 Q680.318,673.956,680.830,671.469 Q681.342,668.982,683.053,667.129 L683.053,667.129 Z M707.285,636.711 L708.498,634.967 L715.749,648.784 L723.053,653.863 L721.916,655.498 L714.640,650.438 L699.098,648.484 L700.368,646.658 L713.774,648.542 L707.285,636.711 Z" fill="#fff" id="def-5dc610d4-c1ee-4efd-a5cc-b6238a97182b"></path><g id="def-d11e7881-4934-43ee-8e37-8be49468ef74"><use xlink:href="#def-bac14921-b0f1-4598-bce4-5fe1a35baa6b" stroke-width="0.000"></use></g><mask id="mask-e8703097-19d2-4ded-a987-13629d853f7a" x="81.187" y="80.713" width="837.627" height="838.573" maskUnits="userSpaceOnUse" stroke-width="0"><rect x="119.261" y="118.787" width="761.479" height="762.425" fill="#000"></rect><use xlink:href="#def-d11e7881-4934-43ee-8e37-8be49468ef74" fill="#fff" stroke="#fff"></use></mask><mask id="mask-a6a55914-5d8f-4eb1-b7fc-d2fade451fa8" x="253.846" y="206.679" width="491.550" height="586.800" maskUnits="userSpaceOnUse" stroke-width="0"><rect x="276.189" y="229.022" width="446.863" height="542.113" fill="#000"></rect><use xlink:href="#def-02673c7c-139e-404c-a613-2bac1eb4929d" fill="#fff" stroke="#fff"></use><use xlink:href="#def-5dc610d4-c1ee-4efd-a5cc-b6238a97182b" fill="#fff" stroke="#fff"></use></mask></defs><rect id="background-shape-06fcda9f-4d59-4a61-9225-b61b7500e6fa" x="-272.031" y="0.000" width="1544.061" height="1000.000" fill="#ffffff"></rect><g mask="url(#mask-e8703097-19d2-4ded-a987-13629d853f7a)"><rect x="119.261" y="118.787" width="761.479" height="762.425" fill="#1d97ff"></rect></g><g mask="url(#mask-a6a55914-5d8f-4eb1-b7fc-d2fade451fa8)"><rect x="276.189" y="229.022" width="446.863" height="542.113" fill="#ffffff"></rect></g></svg>